<svg width="216" height="79" viewBox="0 0 216 79" fill="none" xmlns="http://www.w3.org/2000/svg">
<path d="M4.416 35.568V29.76H21.36V35.568H4.416ZM4.416 7.776V1.968H21.36V7.776H4.416ZM4.416 20.592V14.88H20.4V20.592H4.416ZM0 1.968H6.624V35.568H0V1.968Z" fill="black"/>
<path d="M46.029 1.968H54.429L44.109 18.24L55.149 35.568H46.749L40.077 23.52L33.165 35.568H24.765L36.093 18.24L25.965 1.968H34.365L40.125 12.528L46.029 1.968Z" fill="black"/>
<path d="M59.0625 1.968H65.9265V35.568H59.0625V1.968ZM63.2385 7.776V1.968H69.9105C72.5665 1.968 74.8225 2.4 76.6785 3.264C78.5665 4.128 80.0065 5.36 80.9985 6.96C81.9905 8.56 82.4865 10.464 82.4865 12.672C82.4865 14.848 81.9905 16.752 80.9985 18.384C80.0065 19.984 78.5665 21.216 76.6785 22.08C74.8225 22.944 72.5665 23.376 69.9105 23.376H63.2385V17.568H69.9105C71.7345 17.568 73.1745 17.152 74.2305 16.32C75.2865 15.488 75.8145 14.272 75.8145 12.672C75.8145 11.04 75.2865 9.824 74.2305 9.024C73.1745 8.192 71.7345 7.776 69.9105 7.776H63.2385Z" fill="black"/>
<path d="M87.7969 1.968H94.6609V29.568H108.053V35.568H87.7969V1.968Z" fill="black"/>
<path d="M162.788 19.92H170.036L180.98 35.568H172.868L162.788 19.92ZM155.156 1.968H162.02V35.568H155.156V1.968ZM159.332 7.824V1.968H166.436C169.092 1.968 171.348 2.416 173.204 3.312C175.06 4.208 176.484 5.456 177.476 7.056C178.468 8.656 178.964 10.528 178.964 12.672C178.964 14.784 178.468 16.656 177.476 18.288C176.484 19.888 175.06 21.136 173.204 22.032C171.348 22.928 169.092 23.376 166.436 23.376H159.332V17.904H166.004C167.22 17.904 168.26 17.712 169.124 17.328C170.02 16.912 170.708 16.336 171.188 15.6C171.668 14.832 171.908 13.92 171.908 12.864C171.908 11.808 171.668 10.912 171.188 10.176C170.708 9.408 170.02 8.832 169.124 8.448C168.26 8.032 167.22 7.824 166.004 7.824H159.332Z" fill="black"/>
<path d="M189.578 27.936L190.394 22.512H206.522L207.338 27.936H189.578ZM198.362 12.864L193.322 24.432L193.466 25.968L189.05 35.568H181.322L198.362 0L215.402 35.568H207.626L203.306 26.256L203.402 24.528L198.362 12.864Z" fill="black"/>
<path d="M119.801 60.768C119.801 62.976 120.297 64.912 121.289 66.576C122.313 68.208 123.641 69.472 125.273 70.368C126.905 71.232 128.681 71.664 130.601 71.664C132.201 71.664 133.625 71.456 134.873 71.04C136.121 70.624 137.241 70.064 138.233 69.36C139.257 68.656 140.137 67.888 140.873 67.056V74.784C139.497 75.872 137.993 76.72 136.361 77.328C134.761 77.936 132.729 78.24 130.265 78.24C127.705 78.24 125.321 77.824 123.113 76.992C120.937 76.16 119.033 74.96 117.401 73.392C115.801 71.824 114.553 69.984 113.657 67.872C112.793 65.728 112.361 63.36 112.361 60.768C112.361 58.176 112.793 55.824 113.657 53.712C114.553 51.568 115.801 49.712 117.401 48.144C119.033 46.576 120.937 45.376 123.113 44.544C125.321 43.712 127.705 43.296 130.265 43.296C132.729 43.296 134.761 43.6 136.361 44.208C137.993 44.816 139.497 45.664 140.873 46.752V54.48C140.137 53.648 139.257 52.88 138.233 52.176C137.241 51.472 136.121 50.912 134.873 50.496C133.625 50.08 132.201 49.872 130.601 49.872C128.681 49.872 126.905 50.32 125.273 51.216C123.641 52.08 122.313 53.328 121.289 54.96C120.297 56.592 119.801 58.528 119.801 60.768Z" fill="black"/>
<path d="M147.703 43.968H154.663V77.568H147.703V43.968Z" fill="black"/>
<path d="M158.546 50.16V43.968H183.506V50.16H174.434V77.568H167.57V50.16H158.546Z" fill="black"/>
<path d="M207.531 43.968H215.355L203.787 63.648V77.568H196.827V63.696L185.259 43.968H193.083L200.283 57.504L207.531 43.968Z" fill="black"/>
<path d="M106.476 48.9718L122.696 32.7505C123.94 33.8513 125.39 34.6995 127.047 35.2949C128.704 35.8903 130.419 36.188 132.192 36.188C136.437 36.188 140.029 34.719 142.969 31.7811C145.909 28.8428 147.379 25.2803 147.379 21.0936C147.379 16.9065 145.91 13.3428 142.972 10.4024C140.034 7.46154 136.467 5.99113 132.271 5.99113C128.075 5.99113 124.507 7.4605 121.568 10.3993C118.628 13.338 117.158 16.9018 117.158 21.0905C117.158 22.8413 117.458 24.5461 118.057 26.2049C118.657 27.8636 119.524 29.3661 120.658 30.7124L104.399 46.8711L106.476 48.9718ZM132.23 33.3518C128.816 33.3518 125.923 32.1618 123.551 29.7818C121.18 27.4022 119.995 24.5049 119.995 21.0899C119.995 17.6745 121.18 14.777 123.551 12.3974C125.923 10.0174 128.816 8.82738 132.23 8.82738C135.666 8.82738 138.578 10.0174 140.964 12.3974C143.35 14.777 144.543 17.6745 144.543 21.0899C144.543 24.5049 143.35 27.4022 140.964 29.7818C138.578 32.1618 135.666 33.3518 132.23 33.3518Z" fill="#1F1F1F"/>
</svg>
