<svg width="323" height="49" viewBox="0 0 323 49" fill="none" xmlns="http://www.w3.org/2000/svg">
<path d="M4.416 35.568V29.76H21.36V35.568H4.416ZM4.416 7.77601V1.96801H21.36V7.77601H4.416ZM4.416 20.592V14.88H20.4V20.592H4.416ZM0 1.96801H6.624V35.568H0V1.96801Z" fill="black"/>
<path d="M46.029 1.96801H54.429L44.109 18.24L55.149 35.568H46.749L40.077 23.52L33.165 35.568H24.765L36.093 18.24L25.965 1.96801H34.365L40.125 12.528L46.029 1.96801Z" fill="black"/>
<path d="M59.0625 1.96801H65.9265V35.568H59.0625V1.96801ZM63.2385 7.77601V1.96801H69.9105C72.5665 1.96801 74.8225 2.40001 76.6785 3.26401C78.5665 4.12801 80.0065 5.36001 80.9985 6.96001C81.9905 8.56001 82.4865 10.464 82.4865 12.672C82.4865 14.848 81.9905 16.752 80.9985 18.384C80.0065 19.984 78.5665 21.216 76.6785 22.08C74.8225 22.944 72.5665 23.376 69.9105 23.376H63.2385V17.568H69.9105C71.7345 17.568 73.1745 17.152 74.2305 16.32C75.2865 15.488 75.8145 14.272 75.8145 12.672C75.8145 11.04 75.2865 9.82401 74.2305 9.02401C73.1745 8.19201 71.7345 7.77601 69.9105 7.77601H63.2385Z" fill="black"/>
<path d="M87.7969 1.96801H94.6609V29.568H108.053V35.568H87.7969V1.96801Z" fill="black"/>
<path d="M162.788 19.92H170.036L180.98 35.568H172.868L162.788 19.92ZM155.156 1.96801H162.02V35.568H155.156V1.96801ZM159.332 7.82401V1.96801H166.436C169.092 1.96801 171.348 2.41601 173.204 3.31201C175.06 4.20801 176.484 5.45601 177.476 7.05601C178.468 8.65601 178.964 10.528 178.964 12.672C178.964 14.784 178.468 16.656 177.476 18.288C176.484 19.888 175.06 21.136 173.204 22.032C171.348 22.928 169.092 23.376 166.436 23.376H159.332V17.904H166.004C167.22 17.904 168.26 17.712 169.124 17.328C170.02 16.912 170.708 16.336 171.188 15.6C171.668 14.832 171.908 13.92 171.908 12.864C171.908 11.808 171.668 10.912 171.188 10.176C170.708 9.40801 170.02 8.83201 169.124 8.44801C168.26 8.03201 167.22 7.82401 166.004 7.82401H159.332Z" fill="black"/>
<path d="M193.442 27.936L194.258 22.512H210.386L211.202 27.936H193.442ZM202.226 12.864L197.186 24.432L197.33 25.968L192.914 35.568H185.186L202.226 0L219.266 35.568H211.49L207.17 26.256L207.266 24.528L202.226 12.864Z" fill="black"/>
<path d="M226.94 18.096C226.94 20.304 227.436 22.24 228.428 23.904C229.452 25.536 230.78 26.8 232.412 27.696C234.044 28.56 235.82 28.992 237.74 28.992C239.34 28.992 240.764 28.784 242.012 28.368C243.26 27.952 244.38 27.392 245.372 26.688C246.396 25.984 247.276 25.216 248.012 24.384V32.112C246.636 33.2 245.132 34.048 243.5 34.656C241.9 35.264 239.868 35.568 237.404 35.568C234.844 35.568 232.46 35.152 230.252 34.32C228.076 33.488 226.172 32.288 224.54 30.72C222.94 29.152 221.692 27.312 220.796 25.2C219.932 23.056 219.5 20.688 219.5 18.096C219.5 15.504 219.932 13.152 220.796 11.04C221.692 8.89604 222.94 7.04004 224.54 5.47203C226.172 3.90403 228.076 2.70403 230.252 1.87204C232.46 1.04004 234.844 0.624035 237.404 0.624035C239.868 0.624035 241.9 0.928034 243.5 1.53603C245.132 2.14403 246.636 2.99203 248.012 4.08004V11.808C247.276 10.976 246.396 10.208 245.372 9.50404C244.38 8.80004 243.26 8.24004 242.012 7.82404C240.764 7.40804 239.34 7.20004 237.74 7.20004C235.82 7.20004 234.044 7.64804 232.412 8.54404C230.78 9.40804 229.452 10.656 228.428 12.288C227.436 13.92 226.94 15.856 226.94 18.096Z" fill="black"/>
<path d="M254.842 1.29604H261.802V34.896H254.842V1.29604Z" fill="black"/>
<path d="M265.685 7.48803V1.29604H290.645V7.48803H281.573V34.896H274.709V7.48803H265.685Z" fill="black"/>
<path d="M314.67 1.29604H322.494L310.926 20.976V34.896H303.966V21.024L292.398 1.29604H300.222L307.422 14.832L314.67 1.29604Z" fill="black"/>
<path d="M106.476 48.9718L122.696 32.7505C123.94 33.8513 125.39 34.6995 127.047 35.2949C128.704 35.8903 130.419 36.188 132.192 36.188C136.437 36.188 140.029 34.7191 142.969 31.7811C145.909 28.8428 147.379 25.2803 147.379 21.0936C147.379 16.9066 145.91 13.3428 142.972 10.4024C140.034 7.46155 136.467 5.99114 132.271 5.99114C128.075 5.99114 124.507 7.46051 121.568 10.3993C118.628 13.338 117.158 16.9018 117.158 21.0905C117.158 22.8413 117.458 24.5461 118.057 26.2049C118.657 27.8636 119.524 29.3661 120.658 30.7124L104.399 46.8711L106.476 48.9718ZM132.23 33.3518C128.816 33.3518 125.923 32.1618 123.551 29.7818C121.18 27.4022 119.995 24.5049 119.995 21.0899C119.995 17.6745 121.18 14.777 123.551 12.3974C125.923 10.0174 128.816 8.82739 132.23 8.82739C135.666 8.82739 138.578 10.0174 140.964 12.3974C143.35 14.777 144.543 17.6745 144.543 21.0899C144.543 24.5049 143.35 27.4022 140.964 29.7818C138.578 32.1618 135.666 33.3518 132.23 33.3518Z" fill="#1F1F1F"/>
</svg>
